<svg id="mermaidChart551" width="100%" xmlns="http://www.w3.org/2000/svg" height="100%" style="max-width:950px;" viewBox="-150 -10 950 897"><style type="text/css" title="mermaid-svg-internal-css">/*  */
*, ::before, ::after { box-sizing: inherit;}
.actor { stroke: rgb(204, 204, 255); fill: rgb(226, 236, 255);}
text.actor { fill: black; stroke: none; font-size: 12px;}
.actor-line { stroke: grey;}
.messageLine0 { stroke-width: 1.5; stroke: black;}
#arrowhead { fill: black;}
.messageText { fill: black; stroke: none; font-size: 12px;}
.note { stroke: rgb(204, 204, 255); fill: rgb(255, 245, 173);}
.noteText { fill: black; stroke: none; font-size: 12px;}
.actor { stroke: rgb(204, 204, 255); fill: rgb(236, 236, 255);}
text.actor { fill: black; stroke: none;}
.actor-line { stroke: grey;}
.messageLine0 { stroke-width: 1.5; stroke: rgb(51, 51, 51);}
#arrowhead { fill: rgb(51, 51, 51);}
#crosshead path { fill: rgb(51, 51, 51) !important; stroke: rgb(51, 51, 51) !important;}
.messageText { fill: rgb(51, 51, 51); stroke: none;}
.note { stroke: rgb(170, 170, 51); fill: rgb(255, 245, 173);}
.noteText { fill: black; stroke: none; font-family: "trebuchet ms", verdana, arial; font-size: 14px;}
text { font-family: "trebuchet ms", verdana, arial; font-size: 14px;}
/*  */
</style><g></g><g><line id="actor2082" x1="75" y1="5" x2="75" y2="886" class="actor-line" stroke-width="0.5px" stroke="#999"></line><rect x="0" y="0" fill="#eaeaea" stroke="#666" width="150" height="65" rx="3" ry="3" class="actor"></rect><text x="75" y="37.5" class="actor" style="text-anchor: middle;">Mubble App</text></g><g><line id="actor2083" x1="275" y1="5" x2="275" y2="886" class="actor-line" stroke-width="0.5px" stroke="#999"></line><rect x="200" y="0" fill="#eaeaea" stroke="#666" width="150" height="65" rx="3" ry="3" class="actor"></rect><text x="275" y="37.5" class="actor" style="text-anchor: middle;">Mubble Server</text></g><g><line id="actor2084" x1="475" y1="5" x2="475" y2="886" class="actor-line" stroke-width="0.5px" stroke="#999"></line><rect x="400" y="0" fill="#eaeaea" stroke="#666" width="150" height="65" rx="3" ry="3" class="actor"></rect><text x="475" y="37.5" class="actor" style="text-anchor: middle;">PG</text></g><g><line id="actor2085" x1="675" y1="5" x2="675" y2="886" class="actor-line" stroke-width="0.5px" stroke="#999"></line><rect x="600" y="0" fill="#eaeaea" stroke="#666" width="150" height="65" rx="3" ry="3" class="actor"></rect><text x="675" y="37.5" class="actor" style="text-anchor: middle;">RG</text></g><defs><marker id="arrowhead" refX="5" refY="2" markerWidth="6" markerHeight="4" orient="auto"><path d="M 0,0 V 4 L6,2 Z"></path></marker></defs><defs><marker id="crosshead" markerWidth="15" markerHeight="8" orient="auto" refX="16" refY="4"><path fill="black" stroke="#000000" stroke-width="1px" d="M 9,2 V 6 L16,4 Z" style="stroke-dasharray: 0, 0;"></path><path fill="none" stroke="#000000" stroke-width="1px" d="M 0,1 L 6,7 M 6,1 L 0,7" style="stroke-dasharray: 0, 0;"></path></marker></defs><g><text x="175" y="93" class="messageText" style="text-anchor: middle;">payment order request</text><line x1="75" y1="100" x2="275" y2="100" class="messageLine0" stroke-width="2" stroke="black" marker-end="url(#arrowhead)" style="fill: none;"></line></g><g><text x="375" y="128" class="messageText" style="text-anchor: middle;">payment order request</text><line x1="275" y1="135" x2="475" y2="135" class="messageLine0" stroke-width="2" stroke="black" marker-end="url(#arrowhead)" style="fill: none;"></line></g><g><text x="375" y="163" class="messageText" style="text-anchor: middle;">payment order response</text><line x1="475" y1="170" x2="275" y2="170" class="messageLine0" stroke-width="2" stroke="black" marker-end="url(#arrowhead)" style="fill: none;"></line></g><g><text x="175" y="198" class="messageText" style="text-anchor: middle;">payment order response</text><line x1="275" y1="205" x2="75" y2="205" class="messageLine0" stroke-width="2" stroke="black" marker-end="url(#arrowhead)" style="fill: none;"></line></g><g><text x="275" y="233" class="messageText" style="text-anchor: middle;">payment init request</text><line x1="75" y1="240" x2="475" y2="240" class="messageLine0" stroke-width="2" stroke="black" marker-end="url(#arrowhead)" style="fill: none;"></line></g><g><text x="275" y="268" class="messageText" style="text-anchor: middle;">payment init response</text><line x1="475" y1="275" x2="75" y2="275" class="messageLine0" stroke-width="2" stroke="black" marker-end="url(#arrowhead)" style="fill: none;"></line></g><g><text x="275" y="303" class="messageText" style="text-anchor: middle;">payment auth request</text><line x1="75" y1="310" x2="475" y2="310" class="messageLine0" stroke-width="2" stroke="black" marker-end="url(#arrowhead)" style="fill: none;"></line></g><g><text x="275" y="338" class="messageText" style="text-anchor: middle;">payment auth response</text><line x1="475" y1="345" x2="75" y2="345" class="messageLine0" stroke-width="2" stroke="black" marker-end="url(#arrowhead)" style="fill: none;"></line></g><g><rect x="-100" y="355" fill="#EDF2AE" stroke="#666" width="150" height="99" rx="0" ry="0" class="note"></rect><text x="-84" y="383" fill="black" class="noteText"><tspan x="-84">Waiting for</tspan><tspan dy="21" x="-84">recharge</tspan><tspan dy="21" x="-84">success/failure</tspan><tspan dy="21" x="-84">notification</tspan></text></g><g><text x="375" y="482" class="messageText" style="text-anchor: middle;">payment confirm request</text><line x1="475" y1="489" x2="275" y2="489" class="messageLine0" stroke-width="2" stroke="black" marker-end="url(#arrowhead)" style="fill: none;"></line></g><g><text x="375" y="517" class="messageText" style="text-anchor: middle;">payment confirm response</text><line x1="275" y1="524" x2="475" y2="524" class="messageLine0" stroke-width="2" stroke="black" marker-end="url(#arrowhead)" style="fill: none;"></line></g><g><text x="475" y="552" class="messageText" style="text-anchor: middle;">recharge request</text><line x1="275" y1="559" x2="675" y2="559" class="messageLine0" stroke-width="2" stroke="black" marker-end="url(#arrowhead)" style="fill: none;"></line></g><g><text x="475" y="587" class="messageText" style="text-anchor: middle;">recharge response</text><line x1="675" y1="594" x2="275" y2="594" class="messageLine0" stroke-width="2" stroke="black" marker-end="url(#arrowhead)" style="fill: none;"></line></g><g><text x="175" y="622" class="messageText" style="text-anchor: middle;">recharge success/failure notification</text><line x1="275" y1="629" x2="75" y2="629" class="messageLine0" stroke-width="2" stroke="black" marker-end="url(#arrowhead)" style="fill: none;"></line></g><g><rect x="100" y="639" fill="#EDF2AE" stroke="#666" width="150" height="57" rx="0" ry="0" class="note"></rect><text x="116" y="667" fill="black" class="noteText"><tspan x="116">In case of recharge</tspan><tspan dy="21" x="116">transaction failure</tspan></text></g><g><text x="375" y="724" class="messageText" style="text-anchor: middle;">payment refund request</text><line x1="275" y1="731" x2="475" y2="731" class="messageLine0" stroke-width="2" stroke="black" marker-end="url(#arrowhead)" style="fill: none;"></line></g><g><text x="375" y="759" class="messageText" style="text-anchor: middle;">payment refund response</text><line x1="475" y1="766" x2="275" y2="766" class="messageLine0" stroke-width="2" stroke="black" marker-end="url(#arrowhead)" style="fill: none;"></line></g><g><text x="175" y="794" class="messageText" style="text-anchor: middle;">payment refund success notification</text><line x1="275" y1="801" x2="75" y2="801" class="messageLine0" stroke-width="2" stroke="black" marker-end="url(#arrowhead)" style="fill: none;"></line></g><g><rect x="0" y="821" fill="#eaeaea" stroke="#666" width="150" height="65" rx="3" ry="3" class="actor"></rect><text x="75" y="858.5" class="actor" style="text-anchor: middle;">Mubble App</text></g><g><rect x="200" y="821" fill="#eaeaea" stroke="#666" width="150" height="65" rx="3" ry="3" class="actor"></rect><text x="275" y="858.5" class="actor" style="text-anchor: middle;">Mubble Server</text></g><g><rect x="400" y="821" fill="#eaeaea" stroke="#666" width="150" height="65" rx="3" ry="3" class="actor"></rect><text x="475" y="858.5" class="actor" style="text-anchor: middle;">PG</text></g><g><rect x="600" y="821" fill="#eaeaea" stroke="#666" width="150" height="65" rx="3" ry="3" class="actor"></rect><text x="675" y="858.5" class="actor" style="text-anchor: middle;">RG</text></g></svg>